name analog
datacolumns 19
datarows 78
range 0.47750000000000004 0.516
endheader
time	ground_force_vx	ground_force_vy	ground_force_vz	ground_force_px	ground_force_py	ground_force_pz	l_ground_force_vx	l_ground_force_vy	l_ground_force_vz	l_ground_force_px	l_ground_force_py	l_ground_force_pz	ground_torque_x	ground_torque_y	ground_torque_z	l_ground_torque_x	l_ground_torque_y	l_ground_torque_z
0.47750000000000004	-0.0	-0.0	-0.0	-7.191860198974609	-4.257449150085449	-833.7224731445312	-0.0	-0.0	-0.0	-0.0	-0.0	-0.0	-0.0	-0.0	-0.0	-0.0	-0.0	-0.0
0.47800000000000004	-0.0	-0.0	-0.0	-6.492673397064209	-5.018826484680176	-834.75634765625	-0.0	-0.0	-0.0	-0.0	-0.0	-0.0	-0.0	-0.0	-0.0	-0.0	-0.0	-0.0
0.47850000000000004	-0.0	-0.0	-0.0	-5.724040985107422	-5.971736907958984	-836.0026245117188	-0.0	-0.0	-0.0	-0.0	-0.0	-0.0	-0.0	-0.0	-0.0	-0.0	-0.0	-0.0
0.47900000000000004	-0.0	-0.0	-0.0	-5.146600723266602	-6.629612445831299	-835.1611938476562	-0.0	-0.0	-0.0	-0.0	-0.0	-0.0	-0.0	-0.0	-0.0	-0.0	-0.0	-0.0
0.47950000000000004	-0.0	-0.0	-0.0	-4.77718448638916	-6.24539041519165	-834.967041015625	-0.0	-0.0	-0.0	-0.0	-0.0	-0.0	-0.0	-0.0	-0.0	-0.0	-0.0	-0.0
0.48	-0.0	-0.0	-0.0	-4.488194465637207	-6.054669380187988	-833.0173950195312	-0.0	-0.0	-0.0	-0.0	-0.0	-0.0	-0.0	-0.0	-0.0	-0.0	-0.0	-0.0
0.4805	-0.0	-0.0	-0.0	-4.097596645355225	-5.738110065460205	-833.7240600585938	-0.0	-0.0	-0.0	-0.0	-0.0	-0.0	-0.0	-0.0	-0.0	-0.0	-0.0	-0.0
0.481	-0.0	-0.0	-0.0	-4.494242668151856	-6.484762191772461	-832.8844604492188	-0.0	-0.0	-0.0	-0.0	-0.0	-0.0	-0.0	-0.0	-0.0	-0.0	-0.0	-0.0
0.4815	-0.0	-0.0	-0.0	-4.476441383361816	-5.904426097869873	-832.2018432617188	-0.0	-0.0	-0.0	-0.0	-0.0	-0.0	-0.0	-0.0	-0.0	-0.0	-0.0	-0.0
0.482	-0.0	-0.0	-0.0	-5.313216209411621	-5.749526500701904	-830.523193359375	-0.0	-0.0	-0.0	-0.0	-0.0	-0.0	-0.0	-0.0	-0.0	-0.0	-0.0	-0.0
0.4825	-0.0	-0.0	-0.0	-5.731622695922852	-4.567780494689941	-829.8626708984375	-0.0	-0.0	-0.0	-0.0	-0.0	-0.0	-0.0	-0.0	-0.0	-0.0	-0.0	-0.0
0.483	-0.0	-0.0	-0.0	-6.356181621551514	-3.821365118026733	-828.5601806640625	-0.0	-0.0	-0.0	-0.0	-0.0	-0.0	-0.0	-0.0	-0.0	-0.0	-0.0	-0.0
0.4835	-0.0	-0.0	-0.0	-6.055295467376709	-2.802278995513916	-828.913330078125	-0.0	-0.0	-0.0	-0.0	-0.0	-0.0	-0.0	-0.0	-0.0	-0.0	-0.0	-0.0
0.484	-0.0	-0.0	-0.0	-6.451096057891846	-2.9746055603027344	-829.441162109375	-0.0	-0.0	-0.0	-0.0	-0.0	-0.0	-0.0	-0.0	-0.0	-0.0	-0.0	-0.0
0.4845	-0.0	-0.0	-0.0	-6.09428071975708	-2.060615539550781	-828.449462890625	-0.0	-0.0	-0.0	-0.0	-0.0	-0.0	-0.0	-0.0	-0.0	-0.0	-0.0	-0.0
0.485	-0.0	-0.0	-0.0	-5.770684242248535	-2.8573813438415527	-828.2069091796875	-0.0	-0.0	-0.0	-0.0	-0.0	-0.0	-0.0	-0.0	-0.0	-0.0	-0.0	-0.0
0.4855	-0.0	-0.0	-0.0	-5.4571309089660645	-3.1195640563964844	-828.3179321289062	-0.0	-0.0	-0.0	-0.0	-0.0	-0.0	-0.0	-0.0	-0.0	-0.0	-0.0	-0.0
0.486	-0.0	-0.0	-0.0	-4.835484504699707	-2.913251638412476	-827.9649047851562	-0.0	-0.0	-0.0	-0.0	-0.0	-0.0	-0.0	-0.0	-0.0	-0.0	-0.0	-0.0
0.4865	-0.0	-0.0	-0.0	-4.211161136627197	-3.48099684715271	-829.61962890625	-0.0	-0.0	-0.0	-0.0	-0.0	-0.0	-0.0	-0.0	-0.0	-0.0	-0.0	-0.0
0.487	-0.0	-0.0	-0.0	-3.92046332359314	-3.916943073272705	-829.3778686523438	-0.0	-0.0	-0.0	-0.0	-0.0	-0.0	-0.0	-0.0	-0.0	-0.0	-0.0	-0.0
0.4875	-0.0	-0.0	-0.0	-3.8595454692840576	-4.813041687011719	-828.913330078125	-0.0	-0.0	-0.0	-0.0	-0.0	-0.0	-0.0	-0.0	-0.0	-0.0	-0.0	-0.0
0.488	-0.0	-0.0	-0.0	-4.066249847412109	-4.69112491607666	-830.1210327148438	-0.0	-0.0	-0.0	-0.0	-0.0	-0.0	-0.0	-0.0	-0.0	-0.0	-0.0	-0.0
0.4885	-0.0	-0.0	-0.0	-4.530503273010254	-6.051872253417969	-828.4483642578125	-0.0	-0.0	-0.0	-0.0	-0.0	-0.0	-0.0	-0.0	-0.0	-0.0	-0.0	-0.0
0.489	-0.0	-0.0	-0.0	-5.446226119995117	-6.656530380249023	-831.067138671875	-0.0	-0.0	-0.0	-0.0	-0.0	-0.0	-0.0	-0.0	-0.0	-0.0	-0.0	-0.0
0.4895	-0.0	-0.0	-0.0	-5.624600887298584	-7.72607946395874	-832.9103393554688	-0.0	-0.0	-0.0	-0.0	-0.0	-0.0	-0.0	-0.0	-0.0	-0.0	-0.0	-0.0
0.49	-0.0	-0.0	-0.0	-5.324301242828369	-9.099737167358398	-833.7289428710938	-0.0	-0.0	-0.0	-0.0	-0.0	-0.0	-0.0	-0.0	-0.0	-0.0	-0.0	-0.0
0.4905	-0.0	-0.0	-0.0	-4.488893985748291	-10.549832344055176	-832.91064453125	-0.0	-0.0	-0.0	-0.0	-0.0	-0.0	-0.0	-0.0	-0.0	-0.0	-0.0	-0.0
0.491	-0.0	-0.0	-0.0	-3.4670872688293457	-11.258794784545898	-834.8209228515625	-0.0	-0.0	-0.0	-0.0	-0.0	-0.0	-0.0	-0.0	-0.0	-0.0	-0.0	-0.0
0.4915	-0.0	-0.0	-0.0	-3.3252933025360107	-11.736809730529783	-835.8954467773438	-0.0	-0.0	-0.0	-0.0	-0.0	-0.0	-0.0	-0.0	-0.0	-0.0	-0.0	-0.0
0.492	-0.0	-0.0	-0.0	-2.7047829627990723	-12.032604217529297	-833.8577880859375	-0.0	-0.0	-0.0	-0.0	-0.0	-0.0	-0.0	-0.0	-0.0	-0.0	-0.0	-0.0
0.4925	-0.0	-0.0	-0.0	-2.137324810028076	-12.007859230041504	-833.8430786132812	-0.0	-0.0	-0.0	-0.0	-0.0	-0.0	-0.0	-0.0	-0.0	-0.0	-0.0	-0.0
0.493	-0.0	-0.0	-0.0	-1.844893217086792	-11.166177749633787	-832.0775756835938	-0.0	-0.0	-0.0	-0.0	-0.0	-0.0	-0.0	-0.0	-0.0	-0.0	-0.0	-0.0
0.4935	-0.0	-0.0	-0.0	-0.5031853318214417	-11.294528007507324	-832.445068359375	-0.0	-0.0	-0.0	-0.0	-0.0	-0.0	-0.0	-0.0	-0.0	-0.0	-0.0	-0.0
0.494	-0.0	-0.0	-0.0	0.2996315956115722	-10.688864707946776	-833.0382690429688	-0.0	-0.0	-0.0	-0.0	-0.0	-0.0	-0.0	-0.0	-0.0	-0.0	-0.0	-0.0
0.4945	-0.0	-0.0	-0.0	0.6817264556884766	-10.157537460327148	-830.9190063476562	-0.0	-0.0	-0.0	-0.0	-0.0	-0.0	-0.0	-0.0	-0.0	-0.0	-0.0	-0.0
0.495	-0.0	-0.0	-0.0	-0.0892105102539062	-9.508313179016112	-831.045166015625	-0.0	-0.0	-0.0	-0.0	-0.0	-0.0	-0.0	-0.0	-0.0	-0.0	-0.0	-0.0
0.4955	-0.0	-0.0	-0.0	-0.1846173107624054	-8.849493026733398	-830.3137817382812	-0.0	-0.0	-0.0	-0.0	-0.0	-0.0	-0.0	-0.0	-0.0	-0.0	-0.0	-0.0
0.496	-0.0	-0.0	-0.0	-0.8255521059036255	-8.467388153076172	-828.6738891601562	-0.0	-0.0	-0.0	-0.0	-0.0	-0.0	-0.0	-0.0	-0.0	-0.0	-0.0	-0.0
0.4965	-0.0	-0.0	-0.0	-0.949633777141571	-8.435734748840332	-828.65087890625	-0.0	-0.0	-0.0	-0.0	-0.0	-0.0	-0.0	-0.0	-0.0	-0.0	-0.0	-0.0
0.497	-0.0	-0.0	-0.0	-0.2704325020313263	-8.941817283630371	-829.8588256835938	-0.0	-0.0	-0.0	-0.0	-0.0	-0.0	-0.0	-0.0	-0.0	-0.0	-0.0	-0.0
0.4975	-0.0	-0.0	-0.0	-0.3252690434455871	-9.15163803100586	-829.7119750976562	-0.0	-0.0	-0.0	-0.0	-0.0	-0.0	-0.0	-0.0	-0.0	-0.0	-0.0	-0.0
0.498	-0.0	-0.0	-0.0	-0.0	-9.7755126953125	-830.087158203125	-0.0	-0.0	-0.0	-0.0	-0.0	-0.0	-0.0	-0.0	-0.0	-0.0	-0.0	-0.0
0.4985	-0.0	-0.0	-0.0	-0.8054158091545105	-9.295913696289062	-827.9681396484375	-0.0	-0.0	-0.0	-0.0	-0.0	-0.0	-0.0	-0.0	-0.0	-0.0	-0.0	-0.0
0.499	-0.0	-0.0	-0.0	-1.1861977577209473	-9.746560096740724	-828.913330078125	-0.0	-0.0	-0.0	-0.0	-0.0	-0.0	-0.0	-0.0	-0.0	-0.0	-0.0	-0.0
0.4995	-0.0	-0.0	-0.0	-1.219990372657776	-9.53461456298828	-824.3312377929688	-0.0	-0.0	-0.0	-0.0	-0.0	-0.0	-0.0	-0.0	-0.0	-0.0	-0.0	-0.0
0.5	-0.0	-0.0	-0.0	-1.277942776679993	-10.461669921875	-825.1343383789062	-0.0	-0.0	-0.0	-0.0	-0.0	-0.0	-0.0	-0.0	-0.0	-0.0	-0.0	-0.0
0.5005000000000001	-0.0	-0.0	-0.0	-1.3112776279449463	-10.92976188659668	-824.7985229492188	-0.0	-0.0	-0.0	-0.0	-0.0	-0.0	-0.0	-0.0	-0.0	-0.0	-0.0	-0.0
0.501	-0.0	-0.0	-0.0	-0.8921051025390625	-11.524809837341309	-824.2069702148438	-0.0	-0.0	-0.0	-0.0	-0.0	-0.0	-0.0	-0.0	-0.0	-0.0	-0.0	-0.0
0.5015000000000001	-0.0	-0.0	-0.0	-1.3381576538085938	-11.588876724243164	-821.1281127929688	-0.0	-0.0	-0.0	-0.0	-0.0	-0.0	-0.0	-0.0	-0.0	-0.0	-0.0	-0.0
0.502	-0.0	-0.0	-0.0	-1.8151538372039795	-11.586952209472656	-822.67138671875	-0.0	-0.0	-0.0	-0.0	-0.0	-0.0	-0.0	-0.0	-0.0	-0.0	-0.0	-0.0
0.5025000000000001	-0.0	-0.0	-0.0	-1.394721269607544	-11.437820434570312	-822.80078125	-0.0	-0.0	-0.0	-0.0	-0.0	-0.0	-0.0	-0.0	-0.0	-0.0	-0.0	-0.0
0.503	-0.0	-0.0	-0.0	-1.2164944410324097	-11.616119384765623	-818.43994140625	-0.0	-0.0	-0.0	-0.0	-0.0	-0.0	-0.0	-0.0	-0.0	-0.0	-0.0	-0.0
0.5035000000000001	-0.0	-0.0	-0.0	-0.5075435638427734	-11.703777313232422	-818.0804443359375	-0.0	-0.0	-0.0	-0.0	-0.0	-0.0	-0.0	-0.0	-0.0	-0.0	-0.0	-0.0
0.504	-0.0	-0.0	-0.0	-0.5937705636024475	-11.794440269470217	-816.4304809570312	-0.0	-0.0	-0.0	-0.0	-0.0	-0.0	-0.0	-0.0	-0.0	-0.0	-0.0	-0.0
0.5045000000000001	-0.0	-0.0	-0.0	-0.9520230293273926	-11.465892791748049	-815.0233154296875	-0.0	-0.0	-0.0	-0.0	-0.0	-0.0	-0.0	-0.0	-0.0	-0.0	-0.0	-0.0
0.505	-0.0	-0.0	-0.0	-1.664452075958252	-11.737123489379885	-816.4551391601562	-0.0	-0.0	-0.0	-0.0	-0.0	-0.0	-0.0	-0.0	-0.0	-0.0	-0.0	-0.0
0.5055000000000001	-0.0	-0.0	-0.0	-2.43803071975708	-10.99469757080078	-815.1439208984375	-0.0	-0.0	-0.0	-0.0	-0.0	-0.0	-0.0	-0.0	-0.0	-0.0	-0.0	-0.0
0.506	-0.0	-0.0	-0.0	-3.0950887203216557	-10.545694351196287	-817.3704833984375	-0.0	-0.0	-0.0	-0.0	-0.0	-0.0	-0.0	-0.0	-0.0	-0.0	-0.0	-0.0
0.5065000000000001	-0.0	-0.0	-0.0	-3.3890626430511475	-10.280330657958984	-817.2658081054688	-0.0	-0.0	-0.0	-0.0	-0.0	-0.0	-0.0	-0.0	-0.0	-0.0	-0.0	-0.0
0.507	-0.0	-0.0	-0.0	-3.953859329223633	-9.506673812866213	-817.84814453125	-0.0	-0.0	-0.0	-0.0	-0.0	-0.0	-0.0	-0.0	-0.0	-0.0	-0.0	-0.0
0.5075000000000001	-0.0	-0.0	-0.0	-3.5374526977539062	-9.715213775634766	-817.722412109375	-0.0	-0.0	-0.0	-0.0	-0.0	-0.0	-0.0	-0.0	-0.0	-0.0	-0.0	-0.0
0.508	-0.0	-0.0	-0.0	-2.6750712394714355	-8.379500389099121	-813.9628295898438	-0.0	-0.0	-0.0	-0.0	-0.0	-0.0	-0.0	-0.0	-0.0	-0.0	-0.0	-0.0
0.5085000000000001	-0.0	-0.0	-0.0	-1.6057891845703125	-8.289127349853516	-813.2520141601562	-0.0	-0.0	-0.0	-0.0	-0.0	-0.0	-0.0	-0.0	-0.0	-0.0	-0.0	-0.0
0.509	-0.0	-0.0	-0.0	-0.9221484661102296	-8.527880668640137	-813.6094360351562	-0.0	-0.0	-0.0	-0.0	-0.0	-0.0	-0.0	-0.0	-0.0	-0.0	-0.0	-0.0
0.5095000000000001	-0.0	-0.0	-0.0	-1.5768532752990725	-8.437792778015137	-813.612060546875	-0.0	-0.0	-0.0	-0.0	-0.0	-0.0	-0.0	-0.0	-0.0	-0.0	-0.0	-0.0
0.51	-0.0	-0.0	-0.0	-1.9329699277877808	-7.694169521331787	-813.8431396484375	-0.0	-0.0	-0.0	-0.0	-0.0	-0.0	-0.0	-0.0	-0.0	-0.0	-0.0	-0.0
0.5105000000000001	-0.0	-0.0	-0.0	-2.23042631149292	-7.071120738983154	-815.0211181640625	-0.0	-0.0	-0.0	-0.0	-0.0	-0.0	-0.0	-0.0	-0.0	-0.0	-0.0	-0.0
0.511	-0.0	-0.0	-0.0	-1.1596896648406982	-6.26882266998291	-815.1400146484375	-0.0	-0.0	-0.0	-0.0	-0.0	-0.0	-0.0	-0.0	-0.0	-0.0	-0.0	-0.0
0.5115000000000001	-0.0	-0.0	-0.0	-0.6540944576263428	-5.377348899841309	-813.0204467773438	-0.0	-0.0	-0.0	-0.0	-0.0	-0.0	-0.0	-0.0	-0.0	-0.0	-0.0	-0.0
0.512	-0.0	-0.0	-0.0	-0.8921051025390625	-5.258826732635498	-811.2559204101562	-0.0	-0.0	-0.0	-0.0	-0.0	-0.0	-0.0	-0.0	-0.0	-0.0	-0.0	-0.0
0.5125	-0.0	-0.0	-0.0	-1.576218843460083	-4.516356468200684	-807.2503051757812	-0.0	-0.0	-0.0	-0.0	-0.0	-0.0	-0.0	-0.0	-0.0	-0.0	-0.0	-0.0
0.513	-0.0	-0.0	-0.0	-3.389633178710937	-3.50591778755188	-802.8976440429688	-0.0	-0.0	-0.0	-0.0	-0.0	-0.0	-0.0	-0.0	-0.0	-0.0	-0.0	-0.0
0.5135	-0.0	-0.0	-0.0	-4.99578857421875	-2.76347279548645	-798.539794921875	-0.0	-0.0	-0.0	-0.0	-0.0	-0.0	-0.0	-0.0	-0.0	-0.0	-0.0	-0.0
0.514	-0.0	-0.0	-0.0	-6.838195323944092	-2.376628398895264	-795.9491577148438	-0.0	-0.0	-0.0	-0.0	-0.0	-0.0	-0.0	-0.0	-0.0	-0.0	-0.0	-0.0
0.5145	-0.0	-0.0	-0.0	-7.0482940673828125	-2.0779407024383545	-790.8989868164062	-0.0	-0.0	-0.0	-0.0	-0.0	-0.0	-0.0	-0.0	-0.0	-0.0	-0.0	-0.0
0.515	-0.0	-0.0	-0.0	-7.285288333892822	-3.0004868507385254	-789.8318481445312	-0.0	-0.0	-0.0	-0.0	-0.0	-0.0	-0.0	-0.0	-0.0	-0.0	-0.0	-0.0
0.5155	-0.0	-0.0	-0.0	-7.87971019744873	-3.237027168273926	-789.357177734375	-0.0	-0.0	-0.0	-0.0	-0.0	-0.0	-0.0	-0.0	-0.0	-0.0	-0.0	-0.0
0.516	-0.0	-0.0	-0.0	-8.263694763183594	-3.3259637355804443	-787.698974609375	-0.0	-0.0	-0.0	-0.0	-0.0	-0.0	-0.0	-0.0	-0.0	-0.0	-0.0	-0.0
